<?xml version='1.0' encoding='UTF-8' standalone='no'?>
<!-- Created with Fritzing (https://fritzing.org/) -->
<svg xmlns="http://www.w3.org/2000/svg" viewBox="0 0 202.967 191.047" width="2.81899in" y="0in" baseProfile="tiny"  xmlns:svg="http://www.w3.org/2000/svg" version="1.2" x="0in" height="2.65343in">
 <g id="watermark" >
  <g >
   <g >
    <path d="M178.235,184.847c-0.604,0,-1.131,0.325,-1.422,0.809l-2.796,0l3.96,-4.071c0.146,-0.146,0.289,-0.322,0.428,-0.521c0.149,-0.222,0.228,-0.479,0.228,-0.768c0,-0.279,-0.097,-0.518,-0.287,-0.71c-0.19,-0.188,-0.444,-0.287,-0.754,-0.287l-4.636,0c-0.305,0,-0.555,0.06,-0.742,0.17c-0.219,0.13,-0.33,0.368,-0.33,0.707c0,0.329,0.111,0.562,0.33,0.692c0.188,0.111,0.438,0.168,0.742,0.168l3.148,0l-3.974,4.086c-0.146,0.147,-0.289,0.315,-0.425,0.504c-0.153,0.212,-0.23,0.472,-0.23,0.771c0,0.28,0.096,0.521,0.288,0.711c0.188,0.188,0.442,0.285,0.754,0.285l4.315,0c0.293,0.467,0.812,0.776,1.4,0.776c0.916,0,1.66,-0.744,1.66,-1.661C179.894,185.592,179.149,184.847,178.235,184.847zM178.235,187.11c-0.334,0,-0.604,-0.271,-0.604,-0.604c0,-0.333,0.27,-0.604,0.604,-0.604c0.332,0,0.604,0.271,0.604,0.604C178.838,186.841,178.567,187.11,178.235,187.11z" fill="#8C8C8C" />
    <path d="M161.292,174.805c-0.914,0,-1.659,0.745,-1.659,1.66c0,0.916,0.745,1.66,1.659,1.66s1.658,-0.744,1.658,-1.66C162.952,175.55,162.208,174.805,161.292,174.805zM161.293,177.068c-0.333,0,-0.604,-0.27,-0.604,-0.603s0.271,-0.603,0.604,-0.603c0.331,0,0.604,0.27,0.604,0.603S161.624,177.068,161.293,177.068z" fill="#8C8C8C" />
    <path d="M169.813,179.467c-0.193,-0.111,-0.439,-0.169,-0.732,-0.169l-1.465,0L167.616,176.776c0,-0.292,-0.057,-0.538,-0.166,-0.729C167.36,175.89,167.167,175.705,166.757,175.705c-0.34,0,-0.578,0.116,-0.709,0.342c-0.109,0.193,-0.167,0.438,-0.167,0.729l0,2.521l-0.481,0c-0.295,0,-0.539,0.06,-0.731,0.169c-0.228,0.129,-0.341,0.368,-0.341,0.708c0,0.412,0.185,0.603,0.341,0.692c0.192,0.111,0.438,0.168,0.731,0.168l0.481,0l0,4.362c0,0.277,0.026,0.533,0.081,0.768c0.056,0.246,0.154,0.464,0.298,0.645c0.146,0.186,0.345,0.332,0.595,0.436c0.241,0.098,0.555,0.146,0.93,0.146l0.896,0c0.292,0,0.539,-0.054,0.731,-0.166c0.154,-0.089,0.341,-0.281,0.341,-0.693c0,-0.338,-0.114,-0.578,-0.341,-0.709c-0.192,-0.109,-0.439,-0.168,-0.731,-0.168l-0.821,0c-0.138,0,-0.19,-0.019,-0.207,-0.024c-0.014,-0.034,-0.035,-0.103,-0.035,-0.231L167.618,181.035l1.465,0c0.295,0,0.541,-0.057,0.734,-0.168c0.152,-0.09,0.34,-0.28,0.34,-0.692C170.153,179.835,170.04,179.596,169.813,179.467z" fill="#8C8C8C" />
    <path d="M161.358,179.297l-1.191,0c-0.292,0,-0.538,0.059,-0.731,0.169c-0.226,0.129,-0.341,0.368,-0.341,0.708c0,0.412,0.188,0.604,0.341,0.691c0.193,0.113,0.439,0.168,0.731,0.168l0.544,0l0,5.362c0,0.293,0.057,0.539,0.167,0.73c0.131,0.227,0.367,0.341,0.708,0.341c0.411,0,0.604,-0.187,0.692,-0.341c0.111,-0.191,0.168,-0.438,0.168,-0.73L162.446,180.385c0,-0.386,-0.084,-0.656,-0.256,-0.83C162.015,179.383,161.745,179.297,161.358,179.297z" fill="#8C8C8C" />
    <path d="M157.523,179.467c-0.193,-0.111,-0.44,-0.169,-0.732,-0.169l-0.604,0c-0.25,0,-0.498,0.063,-0.734,0.187c-0.226,0.119,-0.433,0.271,-0.616,0.453l-0.644,0.604l0,-0.247c0,-0.291,-0.055,-0.538,-0.168,-0.729c-0.128,-0.228,-0.368,-0.34,-0.707,-0.34c-0.41,0,-0.604,0.184,-0.693,0.34c-0.11,0.191,-0.167,0.438,-0.167,0.729l0,4.801c-0.475,0.293,-0.791,0.816,-0.791,1.412c0,0.917,0.745,1.661,1.658,1.661c0.916,0,1.66,-0.744,1.66,-1.661c0,-0.596,-0.317,-1.119,-0.792,-1.412l0,-2.21l1.738,-1.564c0.1,-0.09,0.199,-0.164,0.297,-0.217c0.084,-0.045,0.174,-0.067,0.274,-0.067l0.288,0c0.292,0,0.539,-0.056,0.732,-0.169c0.155,-0.088,0.339,-0.279,0.339,-0.691C157.863,179.835,157.748,179.596,157.523,179.467zM153.324,187.11c-0.332,0,-0.603,-0.271,-0.603,-0.604c0,-0.333,0.271,-0.604,0.603,-0.604c0.333,0,0.604,0.271,0.604,0.604C153.928,186.841,153.657,187.11,153.324,187.11z" fill="#8C8C8C" />
    <path d="M150.807,175.948c-0.193,-0.111,-0.44,-0.167,-0.731,-0.167l-0.59,0c-0.2,0,-0.389,0.004,-0.562,0.016c-0.176,0.009,-0.345,0.035,-0.506,0.07c-0.168,0.041,-0.336,0.109,-0.496,0.202c-0.158,0.093,-0.319,0.222,-0.48,0.382c-0.334,0.314,-0.554,0.656,-0.652,1.017c-0.094,0.348,-0.143,0.735,-0.143,1.151l0,0.678l-0.483,0c-0.292,0,-0.539,0.059,-0.73,0.169c-0.227,0.13,-0.342,0.369,-0.342,0.708c0,0.412,0.185,0.604,0.341,0.693c0.191,0.111,0.438,0.166,0.73,0.166l0.483,0l0,5.362c0,0.293,0.057,0.539,0.167,0.73c0.13,0.227,0.367,0.341,0.708,0.341c0.411,0,0.603,-0.187,0.692,-0.341c0.111,-0.191,0.168,-0.438,0.168,-0.73l0,-5.36l0.92,0c0.293,0,0.54,-0.057,0.732,-0.168c0.155,-0.09,0.34,-0.28,0.34,-0.692c0,-0.34,-0.114,-0.579,-0.34,-0.708c-0.189,-0.111,-0.436,-0.17,-0.729,-0.17l-0.92,0l0,-0.678c0,-0.218,0.019,-0.41,0.056,-0.571c0.032,-0.141,0.103,-0.261,0.218,-0.367l0.002,-0.004l0.002,-0.002c0.082,-0.082,0.176,-0.126,0.29,-0.136c0.15,-0.015,0.339,-0.022,0.564,-0.022l0.56,0c0.291,0,0.539,-0.058,0.731,-0.168c0.154,-0.088,0.339,-0.281,0.339,-0.693C151.147,176.317,151.032,176.078,150.807,175.948z" fill="#8C8C8C" />
    <path d="M202.8,179.565c-0.089,-0.156,-0.282,-0.34,-0.693,-0.34c-0.339,0,-0.578,0.113,-0.707,0.34c-0.078,0.133,-0.127,0.293,-0.152,0.477l-0.021,-0.021c-0.216,-0.236,-0.466,-0.42,-0.747,-0.539c-0.277,-0.119,-0.563,-0.183,-0.849,-0.183l-0.709,0c-0.249,0,-0.466,0.015,-0.64,0.041c-0.182,0.026,-0.352,0.074,-0.51,0.14c-0.158,0.066,-0.313,0.15,-0.459,0.254c-0.139,0.097,-0.303,0.226,-0.486,0.377c-0.188,0.156,-0.342,0.302,-0.463,0.434c-0.127,0.141,-0.23,0.293,-0.306,0.455c-0.069,0.16,-0.122,0.337,-0.147,0.523c-0.026,0.178,-0.041,0.391,-0.041,0.631l0,2.386c0,0.24,0.015,0.451,0.041,0.631c0.025,0.188,0.078,0.361,0.147,0.521c0.074,0.164,0.179,0.318,0.306,0.457c0.119,0.129,0.274,0.274,0.463,0.433c0.186,0.153,0.35,0.28,0.486,0.379c0.146,0.103,0.299,0.188,0.459,0.254c0.158,0.065,0.329,0.112,0.51,0.14c0.174,0.026,0.389,0.039,0.64,0.039l0.709,0c0.298,0,0.591,-0.066,0.87,-0.199c0.244,-0.114,0.492,-0.291,0.73,-0.523l0,1.434c0,0.18,-0.025,0.334,-0.072,0.465c-0.043,0.119,-0.159,0.258,-0.344,0.406c-0.154,0.127,-0.309,0.217,-0.457,0.264c-0.15,0.049,-0.341,0.074,-0.563,0.074l-2.203,0c-0.293,0,-0.538,0.055,-0.732,0.166c-0.152,0.088,-0.34,0.282,-0.34,0.692c0,0.341,0.115,0.579,0.34,0.71c0.194,0.109,0.439,0.167,0.732,0.167l2.326,0c0.247,0,0.463,-0.015,0.638,-0.041c0.179,-0.026,0.351,-0.073,0.513,-0.14c0.153,-0.064,0.31,-0.15,0.455,-0.254c0.143,-0.101,0.305,-0.227,0.487,-0.379c0.185,-0.153,0.343,-0.299,0.463,-0.431c0.128,-0.141,0.229,-0.294,0.304,-0.456c0.071,-0.162,0.123,-0.338,0.148,-0.523c0.025,-0.182,0.041,-0.393,0.041,-0.631l0,-7.898C202.967,180.003,202.913,179.756,202.8,179.565zM201.231,184.025c0,0.188,-0.062,0.35,-0.188,0.49c-0.15,0.172,-0.394,0.403,-0.716,0.686l-0.002,0.003l-0.002,0.004c-0.139,0.13,-0.291,0.237,-0.453,0.325c-0.148,0.082,-0.325,0.121,-0.526,0.121L199.043,185.654c-0.222,0,-0.41,-0.021,-0.563,-0.072c-0.148,-0.049,-0.301,-0.137,-0.453,-0.264c-0.231,-0.186,-0.315,-0.322,-0.346,-0.404c-0.049,-0.131,-0.072,-0.285,-0.072,-0.465l0,-2.206c0,-0.18,0.023,-0.336,0.072,-0.467c0.029,-0.082,0.113,-0.217,0.346,-0.403c0.152,-0.127,0.305,-0.216,0.453,-0.265c0.153,-0.049,0.342,-0.072,0.563,-0.072l0.301,0c0.212,0,0.388,0.037,0.526,0.113c0.152,0.082,0.308,0.191,0.457,0.324c0.322,0.293,0.564,0.529,0.716,0.7c0.128,0.146,0.188,0.304,0.188,0.492L201.231,184.025z" fill="#8C8C8C" />
    <path d="M182.821,174.805c-0.914,0,-1.66,0.745,-1.66,1.66c0,0.916,0.746,1.66,1.66,1.66s1.66,-0.744,1.66,-1.66C184.481,175.55,183.735,174.805,182.821,174.805zM182.821,177.068c-0.332,0,-0.604,-0.27,-0.604,-0.603s0.271,-0.603,0.604,-0.603s0.604,0.27,0.604,0.603C183.425,176.798,183.153,177.068,182.821,177.068z" fill="#8C8C8C" />
    <path d="M193.507,185.073l-0.107,-3.419c-0.011,-0.178,-0.021,-0.338,-0.031,-0.489c-0.01,-0.162,-0.037,-0.322,-0.082,-0.476c-0.045,-0.158,-0.11,-0.309,-0.198,-0.453c-0.093,-0.146,-0.216,-0.289,-0.37,-0.42c-0.225,-0.192,-0.443,-0.334,-0.646,-0.416c-0.207,-0.084,-0.461,-0.127,-0.754,-0.127l-1.012,0c-0.259,0,-0.501,0.058,-0.716,0.164c-0.197,0.098,-0.39,0.203,-0.572,0.315l-0.003,0.002l-0.003,0.003l-0.837,0.555l0,-0.041c0,-0.291,-0.057,-0.539,-0.168,-0.733c-0.129,-0.226,-0.367,-0.339,-0.707,-0.339c-0.411,0,-0.604,0.185,-0.693,0.339c-0.109,0.194,-0.168,0.438,-0.168,0.733l0,6.099c0,0.295,0.059,0.539,0.168,0.734c0.09,0.153,0.282,0.338,0.693,0.338c0.34,0,0.578,-0.114,0.707,-0.338c0.111,-0.195,0.168,-0.439,0.168,-0.734L188.176,182.335l1.953,-1.215c0.04,-0.024,0.082,-0.048,0.121,-0.063c0.031,-0.016,0.07,-0.025,0.115,-0.031c0.049,-0.012,0.117,-0.016,0.195,-0.016l0.362,0c0.188,0,0.334,0.021,0.435,0.059c0.082,0.029,0.143,0.076,0.18,0.143c0.05,0.078,0.08,0.18,0.098,0.303c0.02,0.139,0.034,0.309,0.045,0.504l0.096,3.097c-0.457,0.297,-0.762,0.811,-0.762,1.394c0,0.917,0.746,1.661,1.66,1.661c0.916,0,1.66,-0.744,1.66,-1.661C194.333,185.898,194,185.36,193.507,185.073zM192.673,187.11c-0.334,0,-0.602,-0.271,-0.602,-0.604c0,-0.333,0.268,-0.604,0.602,-0.604c0.333,0,0.604,0.271,0.604,0.604C193.278,186.841,193.006,187.11,192.673,187.11z" fill="#8C8C8C" />
    <path d="M182.884,179.297l-1.193,0c-0.293,0,-0.539,0.059,-0.731,0.169c-0.226,0.129,-0.341,0.368,-0.341,0.708c0,0.412,0.186,0.604,0.341,0.691c0.192,0.113,0.438,0.168,0.731,0.168l0.545,0l0,5.362c0,0.293,0.055,0.539,0.168,0.73c0.127,0.227,0.365,0.341,0.707,0.341c0.41,0,0.604,-0.187,0.691,-0.341c0.111,-0.191,0.17,-0.438,0.17,-0.73L183.972,180.385c0,-0.386,-0.085,-0.656,-0.259,-0.83C183.541,179.383,183.268,179.297,182.884,179.297z" fill="#8C8C8C" />
   </g>
  </g>
 </g>
 <g partID="855146740">
  <g transform="translate(108.37,88.5352)">
   <g gorn="0.2" id="schematic">
    <rect stroke-width="0.9" stroke-linejoin="round" width="35.55" stroke-linecap="round" y="14.4" fill="none" stroke="#000000" x="14.4" height="43.2"/>
    <text font-family="'Droid Sans'" gorn="0.2.1" y="32.5" fill="#000000" id="label" stroke="none" font-size="3.5" x="32.4" text-anchor="middle">MicroSD</text>
    <line stroke-width="0.699998" stroke-linejoin="round" y2="28.8" stroke-linecap="round" y1="28.8" fill="none" x2="14.4" stroke="#787878" x1="0.349999"/>
    <rect stroke-width="0" width="14.4" gorn="0.2.3" y="28.45" fill="none" id="connector39pin" x="0" connectorName="CD" height="0.699998"/>
    <g stroke-width="0" width="0" gorn="0.2.4" y="28.45" fill="none" id="connector39terminal" x="0" height="0.699998"/>
    <text font-family="'Droid Sans'" gorn="0.2.5" y="29.5" fill="#8c8c8c" id="label39" stroke="none" font-size="3.5" x="15.8" text-anchor="start">CD</text>
    <line stroke-width="0.699998" stroke-linejoin="round" y2="36" stroke-linecap="round" y1="36" fill="none" x2="14.4" stroke="#787878" x1="0.349999"/>
    <rect stroke-width="0" width="14.4" gorn="0.2.7" y="35.65" fill="none" id="connector35pin" x="0" connectorName="CLK" height="0.699998"/>
    <g stroke-width="0" width="0" gorn="0.2.8" y="35.65" fill="none" id="connector35terminal" x="0" height="0.699998"/>
    <text font-family="'Droid Sans'" gorn="0.2.9" y="36.7" fill="#8c8c8c" id="label35" stroke="none" font-size="3.5" x="15.8" text-anchor="start">CLK</text>
    <line stroke-width="0.699998" stroke-linejoin="round" y2="28.8" stroke-linecap="round" y1="28.8" fill="none" x2="64.45" stroke="#787878" x1="50.05"/>
    <rect stroke-width="0" width="14.4" gorn="0.2.11" y="28.45" fill="none" id="connector36pin" connectorname="DO" x="50.4" height="0.699998"/>
    <g stroke-width="0" width="0" gorn="0.2.12" y="28.45" fill="none" id="connector36terminal" x="64.8" height="0.699998"/>
    <text font-family="'Droid Sans'" gorn="0.2.13" y="29.5" fill="#8c8c8c" id="label36" stroke="none" font-size="3.5" x="49" text-anchor="end">DO</text>
    <line stroke-width="0.699998" stroke-linejoin="round" y2="36" stroke-linecap="round" y1="36" fill="none" x2="64.45" stroke="#787878" x1="50.05"/>
    <rect stroke-width="0" width="14.4" gorn="0.2.15" y="35.65" fill="none" id="connector37pin" connectorname="DI" x="50.4" height="0.699998"/>
    <g stroke-width="0" width="0" gorn="0.2.16" y="35.65" fill="none" id="connector37terminal" x="64.8" height="0.699998"/>
    <text font-family="'Droid Sans'" gorn="0.2.17" y="36.7" fill="#8c8c8c" id="label37" stroke="none" font-size="3.5" x="49" text-anchor="end">DI</text>
    <line stroke-width="0.699998" stroke-linejoin="round" y2="43.2" stroke-linecap="round" y1="43.2" fill="none" x2="64.45" stroke="#787878" x1="50.05"/>
    <rect stroke-width="0" width="14.4" gorn="0.2.19" y="42.85" fill="none" id="connector38pin" connectorname="CS" x="50.4" height="0.699998"/>
    <g stroke-width="0" width="0" gorn="0.2.20" y="42.85" fill="none" id="connector38terminal" x="64.8" height="0.699998"/>
    <text font-family="'Droid Sans'" gorn="0.2.21" y="43.9" fill="#8c8c8c" id="label38" stroke="none" font-size="3.5" x="49" text-anchor="end">CS</text>
    <line stroke-width="0.699998" stroke-linejoin="round" y2="14.4" stroke-linecap="round" y1="0.349999" fill="none" x2="28.8" stroke="#787878" x1="28.8"/>
    <rect stroke-width="0" width="0.699998" gorn="0.2.23" y="0" fill="none" id="connector32pin" connectorname="VCC" x="28.45" height="14.4"/>
    <g stroke-width="0" width="0.699998" gorn="0.2.24" y="0" fill="none" id="connector32terminal" x="28.45" height="0"/>
    <g transform="matrix(1, 0, 0, 1, 30.2, 16)">
     <g>
      <g>
       <g>
        <g transform="rotate(270)">
         <g>
          <g>
           <g>
            <text font-family="'Droid Sans'" gorn="0.2.25.0.0.0.0.0.0" y="0" fill="#8c8c8c" id="label32" stroke="none" font-size="3.5" x="0" text-anchor="end">VCC</text>
           </g>
          </g>
         </g>
        </g>
       </g>
      </g>
     </g>
    </g>
    <line stroke-width="0.699998" stroke-linejoin="round" y2="14.4" stroke-linecap="round" y1="0.349999" fill="none" x2="36" stroke="#787878" x1="36"/>
    <rect stroke-width="0" width="0.699998" gorn="0.2.27" y="0" fill="none" id="connector33pin" connectorname="+3V3" x="35.65" height="14.4"/>
    <g stroke-width="0" width="0.699998" gorn="0.2.28" y="0" fill="none" id="connector33terminal" x="35.65" height="0"/>
    <g transform="matrix(1, 0, 0, 1, 37.4, 16)">
     <g>
      <g>
       <g>
        <g transform="rotate(270)">
         <g>
          <g>
           <g>
            <text font-family="'Droid Sans'" gorn="0.2.29.0.0.0.0.0.0" y="0" fill="#8c8c8c" id="label33" stroke="none" font-size="3.5" x="0" text-anchor="end">+3V3</text>
           </g>
          </g>
         </g>
        </g>
       </g>
      </g>
     </g>
    </g>
    <line stroke-width="0.699998" stroke-linejoin="round" y2="71.65" stroke-linecap="round" y1="57.6" fill="none" x2="28.8" stroke="#787878" x1="28.8"/>
    <rect stroke-width="0" width="0.699998" gorn="0.2.31" y="57.6" fill="none" id="connector34pin" connectorname="GND" x="28.45" height="14.4"/>
    <g stroke-width="0" width="0.699998" gorn="0.2.32" y="72" fill="none" id="connector34terminal" x="28.45" height="0"/>
    <g transform="matrix(1, 0, 0, 1, 30.2, 56)">
     <g>
      <g>
       <g>
        <g transform="rotate(270)">
         <g>
          <g>
           <g>
            <text font-family="'Droid Sans'" gorn="0.2.33.0.0.0.0.0.0" y="0" fill="#8c8c8c" id="label34" stroke="none" font-size="3.5" x="0" text-anchor="start">GND</text>
           </g>
          </g>
         </g>
        </g>
       </g>
      </g>
     </g>
    </g>
   </g>
  </g>
 </g>
 <g partID="855142080">
  <g transform="translate(72.6986,168.005)">
   <g transform="matrix(-1,0,0,-1,0,0)">
    <g id="schematic">
     <rect stroke-width="0.72" width="57.6" stroke-linecap="round" y="7.57879" fill="none" id="rect7" stroke="#000000" x="7.57014" height="151.2"/>
     <text font-family="'Droid Sans'" y="26.0814" fill="#000000" id="label" font-size="4.32" x="36.3642" text-anchor="middle">Raspberry PI</text>
     <text font-family="'Droid Sans'" y="145.664" fill="#555555" id="label0" font-size="3.528" x="9.72" text-anchor="start">GP14</text>
     <text font-family="'Droid Sans'" y="142.916" fill="#555555" id="text15" font-size="2.52" x="3.10949" text-anchor="start">19</text>
     <text font-family="'Droid Sans'" y="152.839" fill="#555555" id="label1" font-size="3.528" x="9.40719" text-anchor="start">GP15</text>
     <text font-family="'Droid Sans'" y="150.114" fill="#555555" id="text22" font-size="2.52" x="2.76187" text-anchor="start">20</text>
     <text font-family="'Droid Sans'" y="12.5311" fill="#555555" id="text83" font-size="3.528" x="21.9123" text-anchor="middle">SW CLK</text>
     <g transform="scale(0.9998883,1.0001117)">
      <text stroke-width="0.072" font-family="'Droid Sans'" y="5.70896" fill="#555555" id="text51" font-size="2.51972" x="19.2529" text-anchor="middle">41</text>
     </g>
     <text font-family="'Droid Sans'" y="12.5655" fill="#555555" id="text87" font-size="3.528" x="36.2518" text-anchor="middle">SW GND</text>
     <g transform="scale(0.9998883,1.0001117)">
      <text stroke-width="0.072" font-family="'Droid Sans'" y="5.73474" fill="#555555" id="text53" font-size="2.51972" x="31.6522" text-anchor="start">42</text>
     </g>
     <text font-family="'Droid Sans'" y="152.839" fill="#555555" id="text79" font-size="3.528" x="63.2161" text-anchor="end">GP16</text>
     <text font-family="'Droid Sans'" y="150.114" fill="#555555" id="text63" font-size="2.52" x="67.1622" text-anchor="start">21</text>
     <text font-family="'Droid Sans'" y="145.639" fill="#555555" id="text81" font-size="3.528" x="63.0921" text-anchor="end">GP17</text>
     <text font-family="'Droid Sans'" y="142.914" fill="#555555" id="text65" font-size="2.52" x="67.1844" text-anchor="start">22</text>
     <text font-family="'Droid Sans'" y="131.3" fill="#555555" id="text44" font-size="3.528" x="9.72" text-anchor="start">GP13</text>
     <text font-family="'Droid Sans'" y="128.552" fill="#555555" id="text46" font-size="2.52" x="3.10949" text-anchor="start">17</text>
     <text font-family="'Droid Sans'" y="156.351" fill="#555555" id="text48" font-size="3.528" x="36.2766" text-anchor="middle">GND</text>
     <text font-family="'Droid Sans'" y="116.9" fill="#555555" id="text60" font-size="3.528" x="9.72" text-anchor="start">GP11</text>
     <text font-family="'Droid Sans'" y="114.152" fill="#555555" id="text62" font-size="2.52" x="3.10949" text-anchor="start">15</text>
     <text font-family="'Droid Sans'" y="124.075" fill="#555555" id="text64" font-size="3.528" x="9.40719" text-anchor="start">GP12</text>
     <text font-family="'Droid Sans'" y="121.35" fill="#555555" id="text66" font-size="2.52" x="2.76187" text-anchor="start">16</text>
     <text font-family="'Droid Sans'" y="109.711" fill="#555555" id="text80" font-size="3.528" x="9.40719" text-anchor="start">GP10</text>
     <text font-family="'Droid Sans'" y="106.986" fill="#555555" id="text82" font-size="2.52" x="2.76187" text-anchor="start">14</text>
     <text font-family="'Droid Sans'" y="95.2748" fill="#555555" id="text94" font-size="3.528" x="9.40719" text-anchor="start">GP9</text>
     <text font-family="'Droid Sans'" y="92.5502" fill="#555555" id="text96" font-size="2.52" x="2.76187" text-anchor="start">12</text>
     <text font-family="'Droid Sans'" y="80.8999" fill="#555555" id="text148" font-size="3.528" x="9.72" text-anchor="start">GP7</text>
     <text font-family="'Droid Sans'" y="78.1519" fill="#555555" id="text150" font-size="2.52" x="3.10949" text-anchor="start">10</text>
     <text font-family="'Droid Sans'" y="88.0748" fill="#555555" id="text152" font-size="3.528" x="9.40719" text-anchor="start">GP8</text>
     <text font-family="'Droid Sans'" y="85.3502" fill="#555555" id="text154" font-size="2.52" x="2.76187" text-anchor="start">11</text>
     <text font-family="'Droid Sans'" y="73.7108" fill="#555555" id="text168" font-size="3.528" x="9.40719" text-anchor="start">GP6</text>
     <text font-family="'Droid Sans'" y="71.0091" fill="#555555" id="text170" font-size="2.52" x="4.15837" text-anchor="start">9</text>
     <text font-family="'Droid Sans'" y="52.1359" fill="#555555" id="text180" font-size="3.528" x="9.72" text-anchor="start">GP4</text>
     <text font-family="'Droid Sans'" y="49.4108" fill="#555555" id="text182" font-size="2.52" x="4.50598" text-anchor="start">6</text>
     <text font-family="'Droid Sans'" y="59.3108" fill="#555555" id="text184" font-size="3.528" x="9.40719" text-anchor="start">GP5</text>
     <text font-family="'Droid Sans'" y="56.6091" fill="#555555" id="text186" font-size="2.52" x="4.15837" text-anchor="start">7</text>
     <text font-family="'Droid Sans'" y="37.7719" fill="#555555" id="text196" font-size="3.528" x="9.72" text-anchor="start">GP2</text>
     <text font-family="'Droid Sans'" y="35.0468" fill="#555555" id="text198" font-size="2.52" x="4.50598" text-anchor="start">4</text>
     <text font-family="'Droid Sans'" y="44.9468" fill="#555555" id="text200" font-size="3.528" x="9.40719" text-anchor="start">GP3</text>
     <text font-family="'Droid Sans'" y="42.2451" fill="#555555" id="text202" font-size="2.52" x="4.15837" text-anchor="start">5</text>
     <text font-family="'Droid Sans'" y="162.395" fill="#555555" id="text214" font-size="2.52" x="23.6591" text-anchor="start">3,8,13,18</text>
     <text font-family="'Droid Sans'" y="23.3468" fill="#555555" id="text220" font-size="3.528" x="9.72" text-anchor="start">GP1</text>
     <text font-family="'Droid Sans'" y="20.6217" fill="#555555" id="text222" font-size="2.52" x="4.50598" text-anchor="start">2</text>
     <text font-family="'Droid Sans'" y="16.0857" fill="#555555" id="text228" font-size="3.528" x="9.40719" text-anchor="start">GP0</text>
     <text font-family="'Droid Sans'" y="13.384" fill="#555555" id="text230" font-size="2.52" x="4.15837" text-anchor="start">1</text>
     <text font-family="'Droid Sans'" y="12.5655" fill="#555555" id="text236" font-size="3.528" x="50.6166" text-anchor="middle">SW DIO</text>
     <g transform="scale(0.9998883,1.0001117)">
      <text stroke-width="0.072" font-family="'Droid Sans'" y="5.73474" fill="#555555" id="text238" font-size="2.51972" x="46.0153" text-anchor="start">43</text>
     </g>
     <text font-family="'Droid Sans'" y="131.24" fill="#555555" id="text248" font-size="3.528" x="63.0921" text-anchor="end">GP18</text>
     <text font-family="'Droid Sans'" y="128.516" fill="#555555" id="text250" font-size="2.52" x="67.1844" text-anchor="start">24</text>
     <text font-family="'Droid Sans'" y="124.04" fill="#555555" id="text260" font-size="3.528" x="63.2161" text-anchor="end">GP19</text>
     <text font-family="'Droid Sans'" y="121.316" fill="#555555" id="text262" font-size="2.52" x="67.1622" text-anchor="start">25</text>
     <text font-family="'Droid Sans'" y="116.84" fill="#555555" id="text264" font-size="3.528" x="63.0921" text-anchor="end">GP20</text>
     <text font-family="'Droid Sans'" y="114.116" fill="#555555" id="text266" font-size="2.52" x="67.1844" text-anchor="start">26</text>
     <text font-family="'Droid Sans'" y="109.642" fill="#555555" id="text276" font-size="3.528" x="63.2161" text-anchor="end">GP21</text>
     <text font-family="'Droid Sans'" y="106.917" fill="#555555" id="text278" font-size="2.52" x="67.1622" text-anchor="start">27</text>
     <text font-family="'Droid Sans'" y="95.2403" fill="#555555" id="text292" font-size="3.528" x="63.2161" text-anchor="end">GP22</text>
     <text font-family="'Droid Sans'" y="92.5157" fill="#555555" id="text294" font-size="2.52" x="67.1622" text-anchor="start">29</text>
     <text font-family="'Droid Sans'" y="88.0403" fill="#555555" id="text296" font-size="3.528" x="63.0921" text-anchor="end">RUN</text>
     <text font-family="'Droid Sans'" y="85.3157" fill="#555555" id="text298" font-size="2.52" x="67.1844" text-anchor="start">30</text>
     <text font-family="'Droid Sans'" y="80.8419" fill="#555555" id="text308" font-size="3.528" x="63.2161" text-anchor="end">GP26_A0</text>
     <text font-family="'Droid Sans'" y="78.1173" fill="#555555" id="text310" font-size="2.52" x="67.1622" text-anchor="start">31</text>
     <text font-family="'Droid Sans'" y="73.6419" fill="#555555" id="text312" font-size="3.528" x="63.0921" text-anchor="end">GP27_A1</text>
     <text font-family="'Droid Sans'" y="70.9173" fill="#555555" id="text314" font-size="2.52" x="67.1844" text-anchor="start">32</text>
     <text font-family="'Droid Sans'" y="66.4419" fill="#555555" id="text324" font-size="3.528" x="63.2161" text-anchor="end">AGND</text>
     <text font-family="'Droid Sans'" y="63.7173" fill="#555555" id="text326" font-size="2.52" x="67.1622" text-anchor="start">33</text>
     <text font-family="'Droid Sans'" y="59.2419" fill="#555555" id="text328" font-size="3.528" x="63.0921" text-anchor="end">GP28_A2</text>
     <text font-family="'Droid Sans'" y="56.5173" fill="#555555" id="text330" font-size="2.52" x="67.1844" text-anchor="start">34</text>
     <text font-family="'Droid Sans'" y="52.0434" fill="#555555" id="text340" font-size="3.528" x="63.2161" text-anchor="end">ADC_VREF</text>
     <text font-family="'Droid Sans'" y="49.3188" fill="#555555" id="text342" font-size="2.52" x="67.1622" text-anchor="start">35</text>
     <text font-family="'Droid Sans'" y="44.8434" fill="#555555" id="text344" font-size="3.528" x="63.0921" text-anchor="end">3V3</text>
     <text font-family="'Droid Sans'" y="42.1188" fill="#555555" id="text346" font-size="2.52" x="67.1844" text-anchor="start">36</text>
     <text font-family="'Droid Sans'" y="37.6403" fill="#555555" id="text356" font-size="3.528" x="63.2161" text-anchor="end">3V3_EN</text>
     <text font-family="'Droid Sans'" y="34.9157" fill="#555555" id="text358" font-size="2.52" x="67.1622" text-anchor="start">37</text>
     <text font-family="'Droid Sans'" y="23.2419" fill="#555555" id="text372" font-size="3.528" x="63.2161" text-anchor="end">VSS</text>
     <text font-family="'Droid Sans'" y="20.5173" fill="#555555" id="text374" font-size="2.52" x="67.1622" text-anchor="start">39</text>
     <text font-family="'Droid Sans'" y="16.0419" fill="#555555" id="text376" font-size="3.528" x="63.0921" text-anchor="end">VBUS</text>
     <text font-family="'Droid Sans'" y="13.3173" fill="#555555" id="text378" font-size="2.52" x="67.1844" text-anchor="start">40</text>
     <text font-family="'Droid Sans'" y="33.2938" fill="#000000" id="text388" font-size="4.32" x="36.3642" text-anchor="middle">Pico</text>
     <line stroke-width="0.72" y2="14.8357" stroke-linecap="round" y1="14.8357" x2="7.2188" fill="none" id="connector0pin" x1="0.365127" stroke="#555555"/>
     <g stroke-width="0" width="0.72" y="14.4657" fill="none" id="connector0terminal" x="0.0101433" height="0.72"/>
     <line stroke-width="0.72" y2="22.0717" stroke-linecap="round" x2="7.2188" y1="22.0717" fill="none" id="connector1pin" x1="0.365127" stroke="#555555"/>
     <g stroke-width="0" width="0.72" y="21.7217" fill="none" id="connector1terminal" x="0.0101433" height="0.72"/>
     <line stroke-width="0.72" y2="159.101" stroke-linecap="round" x2="36.36" y1="165.955" fill="none" id="connector2pin" x1="36.36" stroke="#555555"/>
     <g transform="rotate(-90)">
      <g stroke-width="0" width="0.72" y="36" fill="none" id="connector2terminal" x="-166.32" height="0.72"/>
     </g>
     <line stroke-width="0.72" y2="36.4968" stroke-linecap="round" y1="36.4968" x2="7.2188" fill="none" id="connector3pin" x1="0.365127" stroke="#555555"/>
     <g stroke-width="0" width="0.72" y="36.1468" fill="none" id="connector3terminal" x="0.0101433" height="0.72"/>
     <line stroke-width="0.72" y2="43.6968" stroke-linecap="round" y1="43.6968" x2="7.2188" fill="none" id="connector4pin" x1="0.365127" stroke="#555555"/>
     <g stroke-width="0" width="0.72" y="43.3268" fill="none" id="connector4terminal" x="0.0101433" height="0.72"/>
     <line stroke-width="0.72" y2="50.8608" stroke-linecap="round" x2="7.2188" y1="50.8608" fill="none" id="connector5pin" x1="0.365127" stroke="#555555"/>
     <g stroke-width="0" width="0.72" y="50.5108" fill="none" id="connector5terminal" x="0.0101433" height="0.72"/>
     <line stroke-width="0.72" y2="58.0608" stroke-linecap="round" x2="7.2188" y1="58.0608" fill="none" id="connector6pin" x1="0.365127" stroke="#555555"/>
     <g stroke-width="0" width="0.72" y="57.6908" fill="none" id="connector6terminal" x="0.0101433" height="0.72"/>
     <line stroke-width="0.72" y2="159.101" stroke-linecap="round" x2="36.36" y1="165.955" fill="none" id="connector7pin" x1="36.36" stroke="#555555"/>
     <g stroke-width="0" width="0.72" y="165.6" fill="none" id="connector7terminal" x="36" height="0.72"/>
     <line stroke-width="0.72" y2="72.4608" stroke-linecap="round" x2="7.2188" y1="72.4608" fill="none" id="connector8pin" x1="0.365127" stroke="#555555"/>
     <g stroke-width="0" width="0.72" y="72.0908" fill="none" id="connector8terminal" x="0.0101433" height="0.72"/>
     <line stroke-width="0.72" y2="79.6248" stroke-linecap="round" y1="79.6248" x2="7.2188" fill="none" id="connector9pin" x1="0.365127" stroke="#555555"/>
     <g stroke-width="0" width="0.72" y="79.2748" fill="none" id="connector9terminal" x="0.0101433" height="0.72"/>
     <line stroke-width="0.72" y2="86.8248" stroke-linecap="round" y1="86.8248" x2="7.2188" fill="none" id="connector10pin" x1="0.365127" stroke="#555555"/>
     <g stroke-width="0" width="0.72" y="86.4548" fill="none" id="connector10terminal" x="0.0101433" height="0.72"/>
     <line stroke-width="0.72" y2="94.0248" stroke-linecap="round" y1="94.0248" x2="7.2188" fill="none" id="connector11pin" x1="0.365127" stroke="#555555"/>
     <g stroke-width="0" width="0.72" y="93.6548" fill="none" id="connector11terminal" x="0.0101433" height="0.72"/>
     <line stroke-width="0.72" y2="159.101" stroke-linecap="round" x2="36.36" y1="165.955" fill="none" id="connector12pin" x1="36.36" stroke="#555555"/>
     <g stroke-width="0" width="0.72" y="165.6" fill="none" id="connector12terminal" x="36" height="0.72"/>
     <line stroke-width="0.72" y2="108.461" stroke-linecap="round" x2="7.2188" y1="108.461" fill="none" id="connector13pin" x1="0.365127" stroke="#555555"/>
     <g stroke-width="0" width="0.72" y="108.091" fill="none" id="connector13terminal" x="0.0101433" height="0.72"/>
     <line stroke-width="0.72" y2="115.625" stroke-linecap="round" y1="115.625" x2="7.2188" fill="none" id="connector14pin" x1="0.365127" stroke="#555555"/>
     <g stroke-width="0" width="0.72" y="115.275" fill="none" id="connector14terminal" x="0.0101433" height="0.72"/>
     <line stroke-width="0.72" y2="122.825" stroke-linecap="round" y1="122.825" x2="7.2188" fill="none" id="connector15pin" x1="0.365127" stroke="#555555"/>
     <g stroke-width="0" width="0.72" y="122.455" fill="none" id="connector15terminal" x="0.0101433" height="0.72"/>
     <line stroke-width="0.72" y2="130.025" stroke-linecap="round" y1="130.025" x2="7.2188" fill="none" id="connector16pin" x1="0.365127" stroke="#555555"/>
     <g stroke-width="0" width="0.72" y="129.675" fill="none" id="connector16terminal" x="0.0101433" height="0.72"/>
     <line stroke-width="0.72" y2="159.101" stroke-linecap="round" y1="165.955" x2="36.36" fill="none" id="connector17pin" x1="36.36" stroke="#555555"/>
     <g stroke-width="0" width="0.72" y="165.6" fill="none" id="connector17terminal" x="36" height="0.72"/>
     <line stroke-width="0.72" y2="144.389" stroke-linecap="round" x2="7.2188" y1="144.389" fill="none" id="connector18pin" x1="0.365127" stroke="#555555"/>
     <g stroke-width="0" width="0.72" y="144.039" fill="none" id="connector18terminal" x="0.0101433" height="0.72"/>
     <line stroke-width="0.72" y2="151.589" stroke-linecap="round" x2="7.2188" y1="151.589" fill="none" id="connector19pin" x1="0.365127" stroke="#555555"/>
     <g stroke-width="0" width="0.72" y="151.219" fill="none" id="connector19terminal" x="0.0101433" height="0.72"/>
     <line stroke-width="0.72" y2="151.555" stroke-linecap="round" y1="151.555" x2="72.3334" fill="none" id="connector20pin" x1="65.4934" stroke="#555555"/>
     <g stroke-width="0" width="0.72" y="151.195" fill="none" id="connector20terminal" x="71.9734" height="0.72"/>
     <line stroke-width="0.72" y2="144.355" stroke-linecap="round" y1="144.355" x2="72.3334" fill="none" id="connector21pin" x1="65.4934" stroke="#555555"/>
     <g stroke-width="0" width="0.72" y="144.067" fill="none" id="connector21terminal" x="71.9734" height="0.72"/>
     <line stroke-width="0.72" y2="165.955" stroke-linecap="round" x2="36.36" y1="159.115" fill="none" id="connector22pin" x1="36.36" stroke="#555555"/>
     <g stroke-width="0" width="0.72" y="165.6" fill="none" id="connector22terminal" x="36" height="0.72"/>
     <line stroke-width="0.72" y2="129.956" stroke-linecap="round" x2="72.3334" y1="129.956" fill="none" id="connector23pin" x1="65.4934" stroke="#555555"/>
     <g stroke-width="0" width="0.72" y="129.668" fill="none" id="connector23terminal" x="71.9734" height="0.72"/>
     <line stroke-width="0.72" y2="122.756" stroke-linecap="round" x2="72.3334" y1="122.756" fill="none" id="connector24pin" x1="65.4934" stroke="#555555"/>
     <g stroke-width="0" width="0.72" y="122.396" fill="none" id="connector24terminal" x="71.9734" height="0.72"/>
     <line stroke-width="0.72" y2="115.556" stroke-linecap="round" x2="72.3334" y1="115.556" fill="none" id="connector25pin" x1="65.4934" stroke="#555555"/>
     <g stroke-width="0" width="0.72" y="115.268" fill="none" id="connector25terminal" x="71.9734" height="0.72"/>
     <line stroke-width="0.72" y2="108.358" stroke-linecap="round" y1="108.358" x2="72.3334" fill="none" id="connector26pin" x1="65.4934" stroke="#555555"/>
     <g stroke-width="0" width="0.72" y="107.998" fill="none" id="connector26terminal" x="71.9734" height="0.72"/>
     <line stroke-width="0.72" y2="165.955" stroke-linecap="round" y1="159.115" x2="36.36" fill="none" id="connector27pin" x1="36.36" stroke="#555555"/>
     <g stroke-width="0" width="0.72" y="165.6" fill="none" id="connector27terminal" x="36" height="0.72"/>
     <line stroke-width="0.72" y2="93.9564" stroke-linecap="round" x2="72.3334" y1="93.9564" fill="none" id="connector28pin" x1="65.4934" stroke="#555555"/>
     <g stroke-width="0" width="0.72" y="93.5964" fill="none" id="connector28terminal" x="71.9734" height="0.72"/>
     <line stroke-width="0.72" y2="86.7564" stroke-linecap="round" x2="72.3334" y1="86.7564" fill="none" id="connector29pin" x1="65.4934" stroke="#555555"/>
     <g stroke-width="0" width="0.72" y="86.4684" fill="none" id="connector29terminal" x="71.9734" height="0.72"/>
     <line stroke-width="0.72" y2="79.558" stroke-linecap="round" y1="79.558" x2="72.3334" fill="none" id="connector30pin" x1="65.4934" stroke="#555555"/>
     <g stroke-width="0" width="0.72" y="79.198" fill="none" id="connector30terminal" x="71.9734" height="0.72"/>
     <line stroke-width="0.72" y2="72.358" stroke-linecap="round" y1="72.358" x2="72.3334" fill="none" id="connector31pin" x1="65.4934" stroke="#555555"/>
     <g stroke-width="0" width="0.72" y="72.07" fill="none" id="connector31terminal" x="71.9734" height="0.72"/>
     <line stroke-width="0.72" y2="65.158" stroke-linecap="round" y1="65.158" x2="72.3334" fill="none" id="connector32pin" x1="65.4934" stroke="#555555"/>
     <g stroke-width="0" width="0.72" y="64.798" fill="none" id="connector32terminal" x="71.9734" height="0.72"/>
     <line stroke-width="0.72" y2="57.958" stroke-linecap="round" y1="57.958" x2="72.3334" fill="none" id="connector33pin" x1="65.4934" stroke="#555555"/>
     <g stroke-width="0" width="0.72" y="57.67" fill="none" id="connector33terminal" x="71.9734" height="0.72"/>
     <line stroke-width="0.72" y2="50.7595" stroke-linecap="round" x2="72.3334" y1="50.7595" fill="none" id="connector34pin" x1="65.4934" stroke="#555555"/>
     <g stroke-width="0" width="0.72" y="50.3995" fill="none" id="connector34terminal" x="71.9734" height="0.72"/>
     <line stroke-width="0.72" y2="43.5595" stroke-linecap="round" x2="72.3334" y1="43.5595" fill="none" id="connector35pin" x1="65.4934" stroke="#555555"/>
     <g stroke-width="0" width="0.72" y="43.2715" fill="none" id="connector35terminal" x="71.9734" height="0.72"/>
     <line stroke-width="0.72" y2="36.3564" stroke-linecap="round" x2="72.3334" y1="36.3564" fill="none" id="connector36pin" x1="65.4934" stroke="#555555"/>
     <g stroke-width="0" width="0.72" y="35.9964" fill="none" id="connector36terminal" x="71.9734" height="0.72"/>
     <line stroke-width="0.72" y2="159.115" stroke-linecap="round" x2="36.36" y1="165.955" fill="none" id="connector37pin" x1="36.36" stroke="#555555"/>
     <g stroke-width="0" width="0.72" y="165.6" fill="none" id="connector37terminal" x="36" height="0.72"/>
     <line stroke-width="0.72" y2="21.9579" stroke-linecap="round" y1="21.9579" x2="72.3334" fill="none" id="connector38pin" x1="65.4934" stroke="#555555"/>
     <g stroke-width="0" width="0.72" y="21.5979" fill="none" id="connector38terminal" x="71.9734" height="0.72"/>
     <line stroke-width="0.72" y2="14.758" stroke-linecap="round" y1="14.758" x2="72.3334" fill="none" id="connector39pin" x1="65.4934" stroke="#555555"/>
     <g stroke-width="0" width="0.72" y="14.47" fill="none" id="connector39terminal" x="71.9734" height="0.72"/>
     <line stroke-width="0.72" y2="7.55487" stroke-linecap="round" y1="0.714868" x2="21.9481" fill="none" id="connector40pin" x1="21.9481" stroke="#555555"/>
     <g stroke-width="0" width="0.72" y="1.02318e-15" fill="none" id="connector40terminal" x="21.5881" height="0.72"/>
     <line stroke-width="0.72" y2="7.55487" stroke-linecap="round" x2="36.3488" y1="0.714868" fill="none" id="connector41pin" x1="36.3488" stroke="#555555"/>
     <g stroke-width="0" width="0.72" y="1.02318e-15" fill="none" id="connector41terminal" x="35.9888" height="0.72"/>
     <line stroke-width="0.72" y2="7.55487" stroke-linecap="round" y1="0.714868" x2="50.7135" fill="none" id="connector42pin" x1="50.7135" stroke="#555555"/>
     <g stroke-width="0" width="0.72" y="1.02318e-15" fill="none" id="connector42terminal" x="50.3535" height="0.72"/>
     <text font-family="'Droid Sans'" y="162.38" fill="#555555" id="text361" font-size="2.52" x="38.0591" text-anchor="start">23,28,38</text>
    </g>
   </g>
  </g>
 </g>
 <g partID="855142420">
  <g transform="translate(137.15,5.728)">
   <g id="schematic">
    <line stroke-width="0.7" stroke-linejoin="round" y2="3.6" stroke-linecap="round" fill="none" y1="3.6" x2="7.346" id="connector0pin" stroke="#000000" x1="0.35"/>
    <g width="0.546" y="3.504" fill="none" id="connector0terminal" x="-0.252" height="0.208"/>
    <polyline stroke-width="0.7" stroke-linejoin="round" stroke-linecap="round" fill="none" stroke="#000000" points="14.1,5.557,9.927,3.6,14.1,1.643"/>
    <line stroke-width="0.7" stroke-linejoin="round" y2="3.6" stroke-linecap="round" fill="none" y1="3.6" x2="4.804" id="line" stroke="#000000" x1="10.11"/>
    <g transform="matrix(1, 0, 0, 1, 4.3611, 2.5796)">
     <text font-family="'DroidSans'" fill="#8C8C8C" font-size="2.5">1</text>
    </g>
    <line stroke-width="0.7" stroke-linejoin="round" y2="10.8" stroke-linecap="round" fill="none" y1="10.8" x2="7.346" id="connector1pin" stroke="#000000" x1="0.35"/>
    <g width="0.546" y="10.704" fill="none" id="connector1terminal" x="-0.252" height="0.208"/>
    <polyline stroke-width="0.7" stroke-linejoin="round" stroke-linecap="round" fill="none" stroke="#000000" points="14.1,12.757,9.927,10.8,14.1,8.843"/>
    <line stroke-width="0.7" stroke-linejoin="round" y2="10.8" stroke-linecap="round" fill="none" y1="10.8" x2="4.804" id="line_1_" stroke="#000000" x1="10.11"/>
    <g transform="matrix(1, 0, 0, 1, 4.3611, 9.7798)">
     <text font-family="'DroidSans'" fill="#8C8C8C" font-size="2.5">2</text>
    </g>
    <line stroke-width="0.7" stroke-linejoin="round" y2="18" stroke-linecap="round" fill="none" y1="18" x2="7.346" id="connector2pin" stroke="#000000" x1="0.35"/>
    <g width="0.546" y="17.904" fill="none" id="connector2terminal" x="-0.252" height="0.208"/>
    <polyline stroke-width="0.7" stroke-linejoin="round" stroke-linecap="round" fill="none" stroke="#000000" points="14.1,19.957,9.927,18,14.1,16.043"/>
    <line stroke-width="0.7" stroke-linejoin="round" y2="18" stroke-linecap="round" fill="none" y1="18" x2="4.804" id="line_2_" stroke="#000000" x1="10.11"/>
    <g transform="matrix(1, 0, 0, 1, 4.3611, 16.98)">
     <text font-family="'DroidSans'" fill="#8C8C8C" font-size="2.5">3</text>
    </g>
    <line stroke-width="0.7" stroke-linejoin="round" y2="25.2" stroke-linecap="round" fill="none" y1="25.2" x2="7.346" id="connector3pin" stroke="#000000" x1="0.35"/>
    <g width="0.546" y="25.104" fill="none" id="connector3terminal" x="-0.252" height="0.208"/>
    <polyline stroke-width="0.7" stroke-linejoin="round" stroke-linecap="round" fill="none" stroke="#000000" points="14.1,27.157,9.927,25.2,14.1,23.243"/>
    <line stroke-width="0.7" stroke-linejoin="round" y2="25.2" stroke-linecap="round" fill="none" y1="25.2" x2="4.804" id="line_3_" stroke="#000000" x1="10.11"/>
    <g transform="matrix(1, 0, 0, 1, 4.3611, 24.1802)">
     <text font-family="'DroidSans'" fill="#8C8C8C" font-size="2.5">4</text>
    </g>
    <line stroke-width="0.7" stroke-linejoin="round" y2="32.4" stroke-linecap="round" fill="none" y1="32.4" x2="7.346" id="connector4pin" stroke="#000000" x1="0.35"/>
    <g width="0.546" y="32.304" fill="none" id="connector4terminal" x="-0.252" height="0.208"/>
    <polyline stroke-width="0.7" stroke-linejoin="round" stroke-linecap="round" fill="none" stroke="#000000" points="14.1,34.357,9.927,32.4,14.1,30.443"/>
    <line stroke-width="0.7" stroke-linejoin="round" y2="32.4" stroke-linecap="round" fill="none" y1="32.4" x2="4.804" id="line_4_" stroke="#000000" x1="10.11"/>
    <g transform="matrix(1, 0, 0, 1, 4.3611, 31.3804)">
     <text font-family="'DroidSans'" fill="#8C8C8C" font-size="2.5">5</text>
    </g>
    <line stroke-width="0.7" stroke-linejoin="round" y2="39.6" stroke-linecap="round" fill="none" y1="39.6" x2="7.346" id="connector5pin" stroke="#000000" x1="0.35"/>
    <g width="0.546" y="39.504" fill="none" id="connector5terminal" x="-0.252" height="0.207"/>
    <polyline stroke-width="0.7" stroke-linejoin="round" stroke-linecap="round" fill="none" stroke="#000000" points="14.1,41.557,9.927,39.6,14.1,37.643"/>
    <line stroke-width="0.7" stroke-linejoin="round" y2="39.6" stroke-linecap="round" fill="none" y1="39.6" x2="4.804" id="line_5_" stroke="#000000" x1="10.11"/>
    <g transform="matrix(1, 0, 0, 1, 4.3611, 38.5796)">
     <text font-family="'DroidSans'" fill="#8C8C8C" font-size="2.5">6</text>
    </g>
   </g>
  </g>
 </g>
 <g partID="855147000">
  <line stroke-width="0.699998" y2="59.6401" stroke-linecap="round" y1="59.6401" x2="129.873" stroke="#cc1414" x1="137.098"/>
 </g>
 <g partID="855146930">
  <line stroke-width="0.699998" y2="9.26888" stroke-linecap="round" y1="59.6401" x2="129.874" stroke="#cc1414" x1="129.874"/>
 </g>
 <g partID="855146860">
  <line stroke-width="0.699998" y2="9.33599" stroke-linecap="round" y1="9.26888" x2="137.17" stroke="#cc1414" x1="129.874"/>
 </g>
 <g partID="855146790">
  <line stroke-width="0.699998" y2="59.6401" stroke-linecap="round" y1="95.7352" x2="137.098" stroke="#cc1414" x1="137.17"/>
 </g>
 <g partID="855147350">
  <line stroke-width="0.699998" y2="160.578" stroke-linecap="round" y1="160.578" x2="201.916" stroke="#404040" x1="137.098"/>
 </g>
 <g partID="855147280">
  <line stroke-width="0.699998" y2="52.6114" stroke-linecap="round" y1="160.578" x2="201.917" stroke="#404040" x1="201.917"/>
 </g>
 <g partID="855147210">
  <line stroke-width="0.699998" y2="45.3355" stroke-linecap="round" y1="52.6115" x2="137.17" stroke="#404040" x1="137.098"/>
 </g>
 <g partID="855147140">
  <line stroke-width="0.699998" y2="52.6115" stroke-linecap="round" y1="52.6115" x2="137.098" stroke="#404040" x1="201.917"/>
 </g>
 <g partID="855147070">
  <line stroke-width="0.699998" y2="160.578" stroke-linecap="round" y1="153.335" x2="137.098" stroke="#404040" x1="137.17"/>
 </g>
 <g partID="855147850">
  <line stroke-width="0.699998" y2="59.554" stroke-linecap="round" y1="59.6401" x2="72.3284" stroke="#25cc35" x1="79.5024"/>
 </g>
 <g partID="855147780">
  <line stroke-width="0.699998" y2="59.6401" stroke-linecap="round" y1="124.459" x2="79.5021" stroke="#25cc35" x1="79.5024"/>
 </g>
 <g partID="855147420">
  <line stroke-width="0.699998" y2="124.459" stroke-linecap="round" y1="124.535" x2="79.5027" stroke="#25cc35" x1="115.57"/>
 </g>
 <g partID="855148130">
  <line stroke-width="0.699998" y2="66.8638" stroke-linecap="round" y1="131.683" x2="194.693" stroke="#ab58a2" x1="194.693"/>
 </g>
 <g partID="855148060">
  <line stroke-width="0.699998" y2="66.8638" stroke-linecap="round" y1="66.8638" x2="115.622" stroke="#ab58a2" x1="194.693"/>
 </g>
 <g partID="855147990">
  <line stroke-width="0.699998" y2="38.164" stroke-linecap="round" y1="66.8638" x2="115.622" stroke="#ab58a2" x1="115.622"/>
 </g>
 <g partID="855147920">
  <line stroke-width="0.699998" y2="37.97" stroke-linecap="round" y1="38.164" x2="72.3284" stroke="#ab58a2" x1="115.622"/>
 </g>
 <g partID="855147490">
  <line stroke-width="0.699998" y2="131.683" stroke-linecap="round" y1="131.735" x2="194.693" stroke="#ab58a2" x1="165.97"/>
 </g>
 <g partID="855148500">
  <line stroke-width="0.699998" y2="74.0876" stroke-linecap="round" y1="45.3878" x2="108.398" stroke="#418dd9" x1="108.398"/>
 </g>
 <g partID="855148430">
  <line stroke-width="0.699998" y2="74.0877" stroke-linecap="round" y1="74.0876" x2="187.664" stroke="#418dd9" x1="108.398"/>
 </g>
 <g partID="855148360">
  <line stroke-width="0.699998" y2="124.459" stroke-linecap="round" y1="74.0877" x2="187.664" stroke="#418dd9" x1="187.664"/>
 </g>
 <g partID="855148290">
  <line stroke-width="0.699998" y2="124.535" stroke-linecap="round" y1="124.459" x2="165.97" stroke="#418dd9" x1="187.664"/>
 </g>
 <g partID="855148220">
  <line stroke-width="0.699998" y2="45.3878" stroke-linecap="round" y1="45.19" x2="108.398" stroke="#418dd9" x1="72.3288"/>
 </g>
 <g partID="855148850">
  <line stroke-width="0.699998" y2="81.3114" stroke-linecap="round" y1="52.6115" x2="101.174" stroke="#ff7300" x1="101.174"/>
 </g>
 <g partID="855148780">
  <line stroke-width="0.699998" y2="81.3114" stroke-linecap="round" y1="81.3114" x2="180.441" stroke="#ff7300" x1="101.174"/>
 </g>
 <g partID="855148710">
  <line stroke-width="0.699998" y2="117.43" stroke-linecap="round" y1="81.3114" x2="180.44" stroke="#ff7300" x1="180.441"/>
 </g>
 <g partID="855148640">
  <line stroke-width="0.699998" y2="117.335" stroke-linecap="round" y1="117.43" x2="165.97" stroke="#ff7300" x1="180.44"/>
 </g>
 <g partID="855148570">
  <line stroke-width="0.699998" y2="52.6115" stroke-linecap="round" y1="52.37" x2="101.174" stroke="#ff7300" x1="72.3288"/>
 </g>
 <g id="partLabel" partID="855142420">
  <g transform="translate(134.269,0)">
   <g font-style="normal" font-family="'DroidSans'" fill-opacity="1" fill="#000000" font-weight="normal" id="schematicLabel" font-size="3" stroke="none">
    <text y="2.25" x="0">RJ12 (To meter)</text>
   </g>
  </g>
 </g>
 <g id="partLabel" partID="855146740">
  <g transform="translate(113.428,148.402)">
   <g font-style="normal" font-family="'DroidSans'" fill-opacity="1" fill="#000000" font-weight="normal" id="schematicLabel" font-size="3" stroke="none">
    <text y="2.25" x="0">SD Breakout</text>
    <text y="5.25" x="0">Adafruit #254</text>
   </g>
  </g>
 </g>
</svg>
